<?xml version="1.0" standalone="no"?>
<!DOCTYPE svg PUBLIC "-//W3C//DTD SVG 20010904//EN"
 "http://www.w3.org/TR/2001/REC-SVG-20010904/DTD/svg10.dtd">
<svg version="1.0" xmlns="http://www.w3.org/2000/svg"
 width="700.000000pt" height="700.000000pt" viewBox="0 0 700.000000 700.000000"
 preserveAspectRatio="xMidYMid meet">
<metadata>
Created by potrace 1.11, written by Peter Selinger 2001-2013
</metadata>
<g transform="translate(0.000000,700.000000) scale(0.100000,-0.100000)"
fill="#000000" stroke="none">
<path d="M3298 6995 c-2 -1 -41 -5 -88 -9 -130 -9 -232 -23 -435 -61 -16 -3
-90 -21 -163 -40 -308 -81 -587 -196 -867 -358 -103 -60 -289 -180 -305 -197
-3 -3 -41 -32 -84 -65 -404 -305 -766 -751 -1004 -1238 -34 -69 -62 -129 -62
-131 0 -3 -11 -29 -24 -58 -73 -163 -161 -458 -201 -673 -10 -49 -18 -97 -20
-105 -2 -9 -6 -43 -10 -75 -4 -33 -9 -69 -11 -80 -11 -58 -19 -222 -19 -400 1
-292 15 -443 70 -725 20 -102 99 -387 124 -445 5 -11 14 -36 21 -55 15 -44 18
-50 79 -192 141 -323 372 -678 615 -943 73 -79 208 -214 256 -255 14 -12 39
-34 55 -49 51 -46 236 -185 320 -241 44 -29 99 -66 122 -81 23 -16 44 -29 47
-29 4 0 24 -11 45 -24 67 -42 292 -153 411 -202 110 -45 354 -129 402 -138 13
-2 30 -7 38 -10 39 -16 314 -70 415 -82 28 -3 61 -7 75 -9 181 -25 667 -25
795 -1 11 2 45 7 75 11 122 15 219 32 295 52 33 8 71 17 85 20 53 9 269 77
384 120 111 41 418 187 526 249 356 207 740 543 1004 881 368 471 630 1095
701 1668 4 28 8 61 10 74 26 156 25 618 0 801 -3 19 -7 54 -10 77 -14 132 -57
330 -110 513 -211 718 -652 1355 -1250 1803 -312 234 -680 428 -1000 527 -22
7 -50 16 -61 20 -61 23 -324 88 -421 104 -46 8 -234 34 -293 41 -54 7 -526 16
-532 10z"/>
</g>
</svg>
