<svg id="Layer_3" data-name="Layer 3" xmlns="http://www.w3.org/2000/svg" viewBox="0 0 335 465"><defs><style>.cls-1{fill:#f2f2f2;}.cls-2{fill:#212121;}</style></defs><title>logo</title><polygon class="cls-1" points="14 444 14 12 199 12 206 26 322 141 322 444 14 444"/><rect class="cls-2" x="26" y="181" width="26" height="26"/><rect class="cls-2" x="129" y="181" width="26" height="26"/><polygon class="cls-2" points="310 129 310 104 284 104 284 130 309 130 309 439 26 439 26 26 206 26 206 0 0 0 0 464 0 465 335 465 335 129 310 129"/><rect class="cls-2" x="206" y="26" width="26" height="26"/><rect class="cls-2" x="232" y="52" width="26" height="26"/><rect class="cls-2" x="258" y="78" width="26" height="26"/><rect class="cls-2" x="52" y="155" width="77" height="26"/><rect class="cls-2" x="180" y="181" width="26" height="26"/><rect class="cls-2" x="283" y="181" width="26" height="26"/><rect class="cls-2" x="206" y="155" width="77" height="26"/><polygon class="cls-2" points="77 284 77 310 77 336 103 336 103 362 129 362 129 387 206 387 206 362 232 362 232 336 258 336 258 310 258 284 77 284"/><polygon class="cls-1" points="103 310 103 336 129 336 129 362 206 362 206 336 232 336 232 310 103 310"/></svg>